solid OpenSCAD_Model
  facet normal -1 0 0
    outer loop
      vertex -75.4 -39.2 -1.5
      vertex -75.4 -39.2 3.5
      vertex -75.4 39.2 -1.5
    endloop
  endfacet
  facet normal -1 0 0
    outer loop
      vertex -75.4 39.2 -1.5
      vertex -75.4 -39.2 3.5
      vertex -75.4 39.2 3.5
    endloop
  endfacet
  facet normal 0 -1 0
    outer loop
      vertex -75.4 -39.2 3.5
      vertex -75.4 -39.2 -1.5
      vertex -72.4 -39.2 -1.5
    endloop
  endfacet
  facet normal 0 -1 0
    outer loop
      vertex -72.4 -39.2 3.5
      vertex -75.4 -39.2 3.5
      vertex -72.4 -39.2 -1.5
    endloop
  endfacet
  facet normal 0 0 -1
    outer loop
      vertex -75.4 -39.2 -1.5
      vertex -75.4 39.2 -1.5
      vertex -72.4 -39.2 -1.5
    endloop
  endfacet
  facet normal 0 0 -1
    outer loop
      vertex -72.4 25.2 -1.5
      vertex -75.4 39.2 -1.5
      vertex -72.4 39.2 -1.5
    endloop
  endfacet
  facet normal 0 0 -1
    outer loop
      vertex -72.4 -39.2 -1.5
      vertex -75.4 39.2 -1.5
      vertex -72.4 -36.2 -1.5
    endloop
  endfacet
  facet normal 0 0 -1
    outer loop
      vertex -72.4 39.2 -1.5
      vertex -2.5 31.2 -1.5
      vertex -72.4 31.2 -1.5
    endloop
  endfacet
  facet normal 0 0 -1
    outer loop
      vertex -67.4 58.2 -1.5
      vertex -75.4 63.2 -1.5
      vertex -75.4 66.2 -1.5
    endloop
  endfacet
  facet normal 0 0 -1
    outer loop
      vertex -67.4 58.2 -1.5
      vertex -75.4 66.2 -1.5
      vertex -2.5 58.2 -1.5
    endloop
  endfacet
  facet normal 0 0 -1
    outer loop
      vertex -72.4 39.2 -1.5
      vertex -75.4 39.2 -1.5
      vertex -75.4 63.2 -1.5
    endloop
  endfacet
  facet normal 0 0 -1
    outer loop
      vertex -2.5 44.2 -1.5
      vertex -2.5 31.2 -1.5
      vertex -67.4 44.2 -1.5
    endloop
  endfacet
  facet normal 0 0 -1
    outer loop
      vertex 67.4 58.2 -1.5
      vertex 75.4 63.2 -1.5
      vertex 67.4 44.2 -1.5
    endloop
  endfacet
  facet normal 0 0 -1
    outer loop
      vertex -2.5 58.2 -1.5
      vertex -75.4 66.2 -1.5
      vertex 75.4 66.2 -1.5
    endloop
  endfacet
  facet normal 0 0 -1
    outer loop
      vertex 67.4 44.2 -1.5
      vertex 2.5 31.2 -1.5
      vertex -2.5 31.2 -1.5
    endloop
  endfacet
  facet normal 0 0 -1
    outer loop
      vertex 72.4 39.2 -1.5
      vertex 75.4 63.2 -1.5
      vertex 75.4 39.2 -1.5
    endloop
  endfacet
  facet normal 0 0 -1
    outer loop
      vertex 67.4 44.2 -1.5
      vertex 75.4 63.2 -1.5
      vertex 72.4 39.2 -1.5
    endloop
  endfacet
  facet normal 0 0 -1
    outer loop
      vertex 72.4 -36.2 -1.5
      vertex 75.4 -39.2 -1.5
      vertex 72.4 -39.2 -1.5
    endloop
  endfacet
  facet normal 0 0 -1
    outer loop
      vertex 72.4 36.2 -1.5
      vertex 75.4 39.2 -1.5
      vertex 75.4 -39.2 -1.5
    endloop
  endfacet
  facet normal 0 0 -1
    outer loop
      vertex 72.4 -39.2 -1.5
      vertex -2.5 -31.2 -1.5
      vertex 72.4 -36.2 -1.5
    endloop
  endfacet
  facet normal 0 0 -1
    outer loop
      vertex 21 -39.2 -1.5
      vertex 25 -44.2 -1.5
      vertex 21 -48.2 -1.5
    endloop
  endfacet
  facet normal 0 0 -1
    outer loop
      vertex 72.4 36.2 -1.5
      vertex 75.4 -39.2 -1.5
      vertex 72.4 -36.2 -1.5
    endloop
  endfacet
  facet normal 0 0 -1
    outer loop
      vertex 2.5 -31.2 -1.5
      vertex 72.4 -36.2 -1.5
      vertex -2.5 -31.2 -1.5
    endloop
  endfacet
  facet normal 0 0 -1
    outer loop
      vertex -35 -44.2 -1.5
      vertex -39 -39.2 -1.5
      vertex -35 -39.2 -1.5
    endloop
  endfacet
  facet normal 0 0 -1
    outer loop
      vertex 25 -44.2 -1.5
      vertex 39 -48.2 -1.5
      vertex 21 -48.2 -1.5
    endloop
  endfacet
  facet normal 0 0 -1
    outer loop
      vertex 2.5 31.2 -1.5
      vertex 72.4 39.2 -1.5
      vertex 72.4 36.2 -1.5
    endloop
  endfacet
  facet normal 0 0 -1
    outer loop
      vertex -21 -48.2 -1.5
      vertex -25 -39.2 -1.5
      vertex -21 -39.2 -1.5
    endloop
  endfacet
  facet normal 0 0 -1
    outer loop
      vertex 2.5 58.2 -1.5
      vertex 75.4 66.2 -1.5
      vertex 67.4 58.2 -1.5
    endloop
  endfacet
  facet normal 0 0 -1
    outer loop
      vertex -72.4 -36.2 -1.5
      vertex -67.4 -31.2 -1.5
      vertex -2.5 -31.2 -1.5
    endloop
  endfacet
  facet normal 0 0 -1
    outer loop
      vertex -72.4 -36.2 -1.5
      vertex 72.4 -39.2 -1.5
      vertex 39 -39.2 -1.5
    endloop
  endfacet
  facet normal 0 0 -1
    outer loop
      vertex -72.4 -36.2 -1.5
      vertex 39 -39.2 -1.5
      vertex 35 -39.2 -1.5
    endloop
  endfacet
  facet normal 0 0 -1
    outer loop
      vertex -72.4 -36.2 -1.5
      vertex -67.4 25.2 -1.5
      vertex -67.4 -31.2 -1.5
    endloop
  endfacet
  facet normal 0 0 -1
    outer loop
      vertex -21 -48.2 -1.5
      vertex -25 -44.2 -1.5
      vertex -25 -39.2 -1.5
    endloop
  endfacet
  facet normal 0 0 -1
    outer loop
      vertex -72.4 25.2 -1.5
      vertex -67.4 25.2 -1.5
      vertex -72.4 -36.2 -1.5
    endloop
  endfacet
  facet normal 0 0 -1
    outer loop
      vertex -72.4 25.2 -1.5
      vertex -72.4 -36.2 -1.5
      vertex -75.4 39.2 -1.5
    endloop
  endfacet
  facet normal 0 0 -1
    outer loop
      vertex -72.4 39.2 -1.5
      vertex -75.4 63.2 -1.5
      vertex -67.4 58.2 -1.5
    endloop
  endfacet
  facet normal 0 0 -1
    outer loop
      vertex -72.4 39.2 -1.5
      vertex -67.4 58.2 -1.5
      vertex -67.4 44.2 -1.5
    endloop
  endfacet
  facet normal 0 0 -1
    outer loop
      vertex -72.4 39.2 -1.5
      vertex -67.4 44.2 -1.5
      vertex -2.5 31.2 -1.5
    endloop
  endfacet
  facet normal 0 0 -1
    outer loop
      vertex 25 -44.2 -1.5
      vertex 21 -39.2 -1.5
      vertex 25 -39.2 -1.5
    endloop
  endfacet
  facet normal 0 0 -1
    outer loop
      vertex 2.5 31.2 -1.5
      vertex 67.4 44.2 -1.5
      vertex 72.4 39.2 -1.5
    endloop
  endfacet
  facet normal 0 0 -1
    outer loop
      vertex 2.5 58.2 -1.5
      vertex -2.5 58.2 -1.5
      vertex 75.4 66.2 -1.5
    endloop
  endfacet
  facet normal 0 0 -1
    outer loop
      vertex 67.4 58.2 -1.5
      vertex 75.4 66.2 -1.5
      vertex 75.4 63.2 -1.5
    endloop
  endfacet
  facet normal 0 0 -1
    outer loop
      vertex -72.4 -36.2 -1.5
      vertex -2.5 -31.2 -1.5
      vertex 72.4 -39.2 -1.5
    endloop
  endfacet
  facet normal 0 0 -1
    outer loop
      vertex -35 -44.2 -1.5
      vertex -21 -48.2 -1.5
      vertex -39 -48.2 -1.5
    endloop
  endfacet
  facet normal 0 0 -1
    outer loop
      vertex -39 -39.2 -1.5
      vertex -35 -44.2 -1.5
      vertex -39 -48.2 -1.5
    endloop
  endfacet
  facet normal 0 0 -1
    outer loop
      vertex -2.5 31.2 -1.5
      vertex 2.5 31.2 -1.5
      vertex -2.5 -31.2 -1.5
    endloop
  endfacet
  facet normal 0 0 -1
    outer loop
      vertex 67.4 -31.2 -1.5
      vertex 72.4 -36.2 -1.5
      vertex 2.5 -31.2 -1.5
    endloop
  endfacet
  facet normal 0 0 -1
    outer loop
      vertex 72.4 36.2 -1.5
      vertex 72.4 -36.2 -1.5
      vertex 67.4 -31.2 -1.5
    endloop
  endfacet
  facet normal 0 0 -1
    outer loop
      vertex 72.4 36.2 -1.5
      vertex 67.4 -31.2 -1.5
      vertex 67.4 31.2 -1.5
    endloop
  endfacet
  facet normal 0 0 -1
    outer loop
      vertex -2.5 44.2 -1.5
      vertex -2.5 58.2 -1.5
      vertex 2.5 58.2 -1.5
    endloop
  endfacet
  facet normal 0 0 -1
    outer loop
      vertex 2.5 44.2 -1.5
      vertex -2.5 44.2 -1.5
      vertex 2.5 58.2 -1.5
    endloop
  endfacet
  facet normal 0 0 -1
    outer loop
      vertex -2.5 31.2 -1.5
      vertex -2.5 44.2 -1.5
      vertex 2.5 44.2 -1.5
    endloop
  endfacet
  facet normal 0 0 -1
    outer loop
      vertex 67.4 44.2 -1.5
      vertex -2.5 31.2 -1.5
      vertex 2.5 44.2 -1.5
    endloop
  endfacet
  facet normal 0 0 -1
    outer loop
      vertex 2.5 -31.2 -1.5
      vertex -2.5 -31.2 -1.5
      vertex 2.5 31.2 -1.5
    endloop
  endfacet
  facet normal 0 0 -1
    outer loop
      vertex 2.5 31.2 -1.5
      vertex 72.4 36.2 -1.5
      vertex 67.4 31.2 -1.5
    endloop
  endfacet
  facet normal 0 0 -1
    outer loop
      vertex 35 -44.2 -1.5
      vertex 39 -48.2 -1.5
      vertex 25 -44.2 -1.5
    endloop
  endfacet
  facet normal 0 0 -1
    outer loop
      vertex -21 -48.2 -1.5
      vertex -35 -44.2 -1.5
      vertex -25 -44.2 -1.5
    endloop
  endfacet
  facet normal 0 0 -1
    outer loop
      vertex 39 -39.2 -1.5
      vertex 39 -48.2 -1.5
      vertex 35 -44.2 -1.5
    endloop
  endfacet
  facet normal 0 0 -1
    outer loop
      vertex 39 -39.2 -1.5
      vertex 35 -44.2 -1.5
      vertex 35 -39.2 -1.5
    endloop
  endfacet
  facet normal 0 0 -1
    outer loop
      vertex 75.4 39.2 -1.5
      vertex 72.4 36.2 -1.5
      vertex 72.4 39.2 -1.5
    endloop
  endfacet
  facet normal 0 0 -1
    outer loop
      vertex -72.4 -36.2 -1.5
      vertex 35 -39.2 -1.5
      vertex 25 -39.2 -1.5
    endloop
  endfacet
  facet normal 0 0 -1
    outer loop
      vertex -72.4 -36.2 -1.5
      vertex 25 -39.2 -1.5
      vertex 21 -39.2 -1.5
    endloop
  endfacet
  facet normal 0 0 -1
    outer loop
      vertex -72.4 -36.2 -1.5
      vertex 21 -39.2 -1.5
      vertex -21 -39.2 -1.5
    endloop
  endfacet
  facet normal 0 0 -1
    outer loop
      vertex -72.4 -36.2 -1.5
      vertex -21 -39.2 -1.5
      vertex -25 -39.2 -1.5
    endloop
  endfacet
  facet normal 0 0 -1
    outer loop
      vertex -72.4 -36.2 -1.5
      vertex -25 -39.2 -1.5
      vertex -35 -39.2 -1.5
    endloop
  endfacet
  facet normal 0 0 -1
    outer loop
      vertex -72.4 -36.2 -1.5
      vertex -35 -39.2 -1.5
      vertex -39 -39.2 -1.5
    endloop
  endfacet
  facet normal 0 0 -1
    outer loop
      vertex -72.4 -36.2 -1.5
      vertex -39 -39.2 -1.5
      vertex -72.4 -39.2 -1.5
    endloop
  endfacet
  facet normal 0 1 0
    outer loop
      vertex -75.4 39.2 -1.5
      vertex -75.4 39.2 3.5
      vertex -72.4 39.2 -1.5
    endloop
  endfacet
  facet normal 0 1 0
    outer loop
      vertex -72.4 39.2 -1.5
      vertex -75.4 39.2 3.5
      vertex -72.4 39.2 3.5
    endloop
  endfacet
  facet normal 0 0 1
    outer loop
      vertex -75.4 39.2 3.5
      vertex -75.4 -39.2 3.5
      vertex -72.4 -39.2 3.5
    endloop
  endfacet
  facet normal 0 0 1
    outer loop
      vertex -72.4 39.2 3.5
      vertex -75.4 39.2 3.5
      vertex -72.4 -39.2 3.5
    endloop
  endfacet
  facet normal 1 0 0
    outer loop
      vertex -72.4 39.2 3.5
      vertex -72.4 -36.2 1.5
      vertex -72.4 25.2 1.5
    endloop
  endfacet
  facet normal 1 0 0
    outer loop
      vertex -72.4 -36.2 -1.5
      vertex -72.4 -36.2 1.5
      vertex -72.4 -39.2 3.5
    endloop
  endfacet
  facet normal 1 0 0
    outer loop
      vertex -72.4 25.2 -1.5
      vertex -72.4 39.2 -1.5
      vertex -72.4 25.2 1.5
    endloop
  endfacet
  facet normal 1 0 0
    outer loop
      vertex -72.4 39.2 -1.5
      vertex -72.4 39.2 3.5
      vertex -72.4 25.2 1.5
    endloop
  endfacet
  facet normal 1 0 0
    outer loop
      vertex -72.4 39.2 3.5
      vertex -72.4 -39.2 3.5
      vertex -72.4 -36.2 1.5
    endloop
  endfacet
  facet normal 1 0 0
    outer loop
      vertex -72.4 -39.2 3.5
      vertex -72.4 -39.2 -1.5
      vertex -72.4 -36.2 -1.5
    endloop
  endfacet
  facet normal -1 0 0
    outer loop
      vertex -72.4 -39.2 -1.5
      vertex -72.4 -39.2 3.5
      vertex -72.4 -36.2 -1.5
    endloop
  endfacet
  facet normal -1 0 0
    outer loop
      vertex -72.4 -36.2 1.5
      vertex -72.4 -39.2 3.5
      vertex -72.4 -36.2 3.5
    endloop
  endfacet
  facet normal -1 0 0
    outer loop
      vertex -72.4 -36.2 -1.5
      vertex -72.4 -39.2 3.5
      vertex -72.4 -36.2 1.5
    endloop
  endfacet
  facet normal 0 -1 0
    outer loop
      vertex -72.4 -39.2 3.5
      vertex -72.4 -39.2 -1.5
      vertex -39 -39.2 -1.5
    endloop
  endfacet
  facet normal 0 -1 0
    outer loop
      vertex -35 -39.2 1.5
      vertex -72.4 -39.2 3.5
      vertex -39 -39.2 1.5
    endloop
  endfacet
  facet normal 0 -1 0
    outer loop
      vertex -39 -39.2 1.5
      vertex -72.4 -39.2 3.5
      vertex -39 -39.2 -1.5
    endloop
  endfacet
  facet normal 0 -1 0
    outer loop
      vertex -25 -39.2 1.5
      vertex -72.4 -39.2 3.5
      vertex -35 -39.2 1.5
    endloop
  endfacet
  facet normal 0 -1 0
    outer loop
      vertex -25 -39.2 -1.5
      vertex -35 -39.2 1.5
      vertex -35 -39.2 -1.5
    endloop
  endfacet
  facet normal 0 -1 0
    outer loop
      vertex -25 -39.2 1.5
      vertex -35 -39.2 1.5
      vertex -25 -39.2 -1.5
    endloop
  endfacet
  facet normal 0 -1 0
    outer loop
      vertex -21 -39.2 1.5
      vertex -72.4 -39.2 3.5
      vertex -25 -39.2 1.5
    endloop
  endfacet
  facet normal 0 -1 0
    outer loop
      vertex 21 -39.2 1.5
      vertex -72.4 -39.2 3.5
      vertex -21 -39.2 1.5
    endloop
  endfacet
  facet normal 0 -1 0
    outer loop
      vertex 21 -39.2 -1.5
      vertex -21 -39.2 1.5
      vertex -21 -39.2 -1.5
    endloop
  endfacet
  facet normal 0 -1 0
    outer loop
      vertex 21 -39.2 1.5
      vertex -21 -39.2 1.5
      vertex 21 -39.2 -1.5
    endloop
  endfacet
  facet normal 0 -1 0
    outer loop
      vertex 25 -39.2 1.5
      vertex -72.4 -39.2 3.5
      vertex 21 -39.2 1.5
    endloop
  endfacet
  facet normal 0 -1 0
    outer loop
      vertex 35 -39.2 1.5
      vertex -72.4 -39.2 3.5
      vertex 25 -39.2 1.5
    endloop
  endfacet
  facet normal 0 -1 0
    outer loop
      vertex 35 -39.2 -1.5
      vertex 25 -39.2 1.5
      vertex 25 -39.2 -1.5
    endloop
  endfacet
  facet normal 0 -1 0
    outer loop
      vertex 35 -39.2 1.5
      vertex 25 -39.2 1.5
      vertex 35 -39.2 -1.5
    endloop
  endfacet
  facet normal 0 -1 0
    outer loop
      vertex 39 -39.2 1.5
      vertex -72.4 -39.2 3.5
      vertex 35 -39.2 1.5
    endloop
  endfacet
  facet normal 0 -1 0
    outer loop
      vertex 72.4 -39.2 3.5
      vertex -72.4 -39.2 3.5
      vertex 39 -39.2 1.5
    endloop
  endfacet
  facet normal 0 -1 0
    outer loop
      vertex 72.4 -39.2 -1.5
      vertex 39 -39.2 1.5
      vertex 39 -39.2 -1.5
    endloop
  endfacet
  facet normal 0 -1 0
    outer loop
      vertex 72.4 -39.2 3.5
      vertex 39 -39.2 1.5
      vertex 72.4 -39.2 -1.5
    endloop
  endfacet
  facet normal -1 0 0
    outer loop
      vertex -39 -48.2 -1.5
      vertex -39 -48.2 1.5
      vertex -39 -39.2 -1.5
    endloop
  endfacet
  facet normal -1 0 0
    outer loop
      vertex -39 -39.2 -1.5
      vertex -39 -48.2 1.5
      vertex -39 -39.2 1.5
    endloop
  endfacet
  facet normal 0 -1 0
    outer loop
      vertex -39 -48.2 1.5
      vertex -39 -48.2 -1.5
      vertex -21 -48.2 -1.5
    endloop
  endfacet
  facet normal 0 -1 0
    outer loop
      vertex -21 -48.2 1.5
      vertex -39 -48.2 1.5
      vertex -21 -48.2 -1.5
    endloop
  endfacet
  facet normal 1 0 0
    outer loop
      vertex -21 -48.2 1.5
      vertex -21 -48.2 -1.5
      vertex -21 -39.2 -1.5
    endloop
  endfacet
  facet normal 1 0 0
    outer loop
      vertex -21 -39.2 1.5
      vertex -21 -48.2 1.5
      vertex -21 -39.2 -1.5
    endloop
  endfacet
  facet normal -1 0 0
    outer loop
      vertex 21 -48.2 -1.5
      vertex 21 -48.2 1.5
      vertex 21 -39.2 -1.5
    endloop
  endfacet
  facet normal -1 0 0
    outer loop
      vertex 21 -39.2 -1.5
      vertex 21 -48.2 1.5
      vertex 21 -39.2 1.5
    endloop
  endfacet
  facet normal 0 -1 0
    outer loop
      vertex 21 -48.2 1.5
      vertex 21 -48.2 -1.5
      vertex 39 -48.2 -1.5
    endloop
  endfacet
  facet normal 0 -1 0
    outer loop
      vertex 39 -48.2 1.5
      vertex 21 -48.2 1.5
      vertex 39 -48.2 -1.5
    endloop
  endfacet
  facet normal 1 0 0
    outer loop
      vertex 39 -48.2 1.5
      vertex 39 -48.2 -1.5
      vertex 39 -39.2 -1.5
    endloop
  endfacet
  facet normal 1 0 0
    outer loop
      vertex 39 -39.2 1.5
      vertex 39 -48.2 1.5
      vertex 39 -39.2 -1.5
    endloop
  endfacet
  facet normal 1 0 0
    outer loop
      vertex 72.4 -39.2 3.5
      vertex 72.4 -39.2 -1.5
      vertex 72.4 -36.2 -1.5
    endloop
  endfacet
  facet normal 1 0 0
    outer loop
      vertex 72.4 -36.2 1.5
      vertex 72.4 -39.2 3.5
      vertex 72.4 -36.2 -1.5
    endloop
  endfacet
  facet normal 1 0 0
    outer loop
      vertex 72.4 -36.2 1.5
      vertex 72.4 -36.2 3.5
      vertex 72.4 -39.2 3.5
    endloop
  endfacet
  facet normal -1 0 0
    outer loop
      vertex 72.4 -36.2 1.5
      vertex 72.4 -39.2 3.5
      vertex 72.4 36.2 1.5
    endloop
  endfacet
  facet normal -1 0 0
    outer loop
      vertex 72.4 39.2 3.5
      vertex 72.4 39.2 -1.5
      vertex 72.4 36.2 1.5
    endloop
  endfacet
  facet normal -1 0 0
    outer loop
      vertex 72.4 39.2 3.5
      vertex 72.4 36.2 1.5
      vertex 72.4 -39.2 3.5
    endloop
  endfacet
  facet normal -1 0 0
    outer loop
      vertex 72.4 -39.2 3.5
      vertex 72.4 -36.2 1.5
      vertex 72.4 -36.2 -1.5
    endloop
  endfacet
  facet normal -1 0 0
    outer loop
      vertex 72.4 -39.2 3.5
      vertex 72.4 -36.2 -1.5
      vertex 72.4 -39.2 -1.5
    endloop
  endfacet
  facet normal -1 0 0
    outer loop
      vertex 72.4 36.2 1.5
      vertex 72.4 39.2 -1.5
      vertex 72.4 36.2 -1.5
    endloop
  endfacet
  facet normal 0 -1 0
    outer loop
      vertex 72.4 -39.2 3.5
      vertex 72.4 -39.2 -1.5
      vertex 75.4 -39.2 -1.5
    endloop
  endfacet
  facet normal 0 -1 0
    outer loop
      vertex 75.4 -39.2 3.5
      vertex 72.4 -39.2 3.5
      vertex 75.4 -39.2 -1.5
    endloop
  endfacet
  facet normal 1 0 0
    outer loop
      vertex 75.4 -39.2 3.5
      vertex 75.4 -39.2 -1.5
      vertex 75.4 39.2 -1.5
    endloop
  endfacet
  facet normal 1 0 0
    outer loop
      vertex 75.4 39.2 3.5
      vertex 75.4 -39.2 3.5
      vertex 75.4 39.2 -1.5
    endloop
  endfacet
  facet normal 0 1 0
    outer loop
      vertex 72.4 39.2 -1.5
      vertex 72.4 39.2 3.5
      vertex 75.4 39.2 -1.5
    endloop
  endfacet
  facet normal 0 1 0
    outer loop
      vertex 75.4 39.2 -1.5
      vertex 72.4 39.2 3.5
      vertex 75.4 39.2 3.5
    endloop
  endfacet
  facet normal 1 0 0
    outer loop
      vertex 72.4 36.2 1.5
      vertex 72.4 36.2 -1.5
      vertex 72.4 39.2 -1.5
    endloop
  endfacet
  facet normal 1 0 0
    outer loop
      vertex 72.4 39.2 1.5
      vertex 72.4 36.2 1.5
      vertex 72.4 39.2 -1.5
    endloop
  endfacet
  facet normal 1 0 0
    outer loop
      vertex 72.4 39.2 3.5
      vertex 72.4 36.2 1.5
      vertex 72.4 39.2 1.5
    endloop
  endfacet
  facet normal 1 0 0
    outer loop
      vertex 72.4 36.2 3.5
      vertex 72.4 36.2 1.5
      vertex 72.4 39.2 3.5
    endloop
  endfacet
  facet normal 0 -1 0
    outer loop
      vertex 72.4 39.2 1.5
      vertex 72.4 39.2 -1.5
      vertex 75.4 39.2 -1.5
    endloop
  endfacet
  facet normal 0 -1 0
    outer loop
      vertex 75.4 39.2 3.5
      vertex 72.4 39.2 1.5
      vertex 75.4 39.2 -1.5
    endloop
  endfacet
  facet normal 0 -1 0
    outer loop
      vertex 72.4 39.2 3.5
      vertex 72.4 39.2 1.5
      vertex 75.4 39.2 3.5
    endloop
  endfacet
  facet normal 1 0 0
    outer loop
      vertex 75.4 39.2 3.5
      vertex 75.4 39.2 -1.5
      vertex 75.4 63.2 -1.5
    endloop
  endfacet
  facet normal 1 0 0
    outer loop
      vertex 75.4 63.2 3.5
      vertex 75.4 39.2 3.5
      vertex 75.4 63.2 -1.5
    endloop
  endfacet
  facet normal 1 0 0
    outer loop
      vertex 75.4 63.2 3.5
      vertex 75.4 63.2 -1.5
      vertex 75.4 66.2 -1.5
    endloop
  endfacet
  facet normal 1 0 0
    outer loop
      vertex 75.4 66.2 3.5
      vertex 75.4 63.2 3.5
      vertex 75.4 66.2 -1.5
    endloop
  endfacet
  facet normal 0 1 0
    outer loop
      vertex -75.4 66.2 -1.5
      vertex -75.4 66.2 3.5
      vertex 75.4 66.2 -1.5
    endloop
  endfacet
  facet normal 0 1 0
    outer loop
      vertex 75.4 66.2 -1.5
      vertex -75.4 66.2 3.5
      vertex -41.2 66.2 3.5
    endloop
  endfacet
  facet normal 0 1 0
    outer loop
      vertex -31.2 66.2 3.5
      vertex -41.2 66.2 3.5
      vertex -41.2 66.2 5.5
    endloop
  endfacet
  facet normal 0 1 0
    outer loop
      vertex 75.4 66.2 -1.5
      vertex -41.2 66.2 3.5
      vertex -31.2 66.2 3.5
    endloop
  endfacet
  facet normal 0 1 0
    outer loop
      vertex 31.2 66.2 3.5
      vertex 75.4 66.2 -1.5
      vertex -31.2 66.2 3.5
    endloop
  endfacet
  facet normal 0 1 0
    outer loop
      vertex 41.2 66.2 3.5
      vertex 31.2 66.2 5.5
      vertex 41.2 66.2 5.5
    endloop
  endfacet
  facet normal 0 1 0
    outer loop
      vertex 41.2 66.2 3.5
      vertex 31.2 66.2 3.5
      vertex 31.2 66.2 5.5
    endloop
  endfacet
  facet normal 0 1 0
    outer loop
      vertex 75.4 66.2 -1.5
      vertex 31.2 66.2 3.5
      vertex 41.2 66.2 3.5
    endloop
  endfacet
  facet normal 0 1 0
    outer loop
      vertex 75.4 66.2 3.5
      vertex 75.4 66.2 -1.5
      vertex 41.2 66.2 3.5
    endloop
  endfacet
  facet normal 0 1 0
    outer loop
      vertex -31.2 66.2 3.5
      vertex -41.2 66.2 5.5
      vertex -31.2 66.2 5.5
    endloop
  endfacet
  facet normal -1 0 0
    outer loop
      vertex -75.4 63.2 -1.5
      vertex -75.4 63.2 3.5
      vertex -75.4 66.2 -1.5
    endloop
  endfacet
  facet normal -1 0 0
    outer loop
      vertex -75.4 66.2 -1.5
      vertex -75.4 63.2 3.5
      vertex -75.4 66.2 3.5
    endloop
  endfacet
  facet normal -1 0 0
    outer loop
      vertex -75.4 39.2 -1.5
      vertex -75.4 39.2 3.5
      vertex -75.4 63.2 -1.5
    endloop
  endfacet
  facet normal -1 0 0
    outer loop
      vertex -75.4 63.2 -1.5
      vertex -75.4 39.2 3.5
      vertex -75.4 63.2 3.5
    endloop
  endfacet
  facet normal 0 -1 0
    outer loop
      vertex -75.4 39.2 3.5
      vertex -75.4 39.2 -1.5
      vertex -72.4 39.2 -1.5
    endloop
  endfacet
  facet normal 0 -1 0
    outer loop
      vertex -72.4 39.2 1.5
      vertex -75.4 39.2 3.5
      vertex -72.4 39.2 -1.5
    endloop
  endfacet
  facet normal 0 -1 0
    outer loop
      vertex -72.4 39.2 1.5
      vertex -72.4 39.2 3.5
      vertex -75.4 39.2 3.5
    endloop
  endfacet
  facet normal -1 0 0
    outer loop
      vertex -72.4 31.2 -1.5
      vertex -72.4 31.2 1.5
      vertex -72.4 39.2 -1.5
    endloop
  endfacet
  facet normal -1 0 0
    outer loop
      vertex -72.4 39.2 -1.5
      vertex -72.4 31.2 1.5
      vertex -72.4 36.2 1.5
    endloop
  endfacet
  facet normal -1 0 0
    outer loop
      vertex -72.4 39.2 -1.5
      vertex -72.4 36.2 1.5
      vertex -72.4 36.2 3.5
    endloop
  endfacet
  facet normal -1 0 0
    outer loop
      vertex -72.4 39.2 1.5
      vertex -72.4 36.2 3.5
      vertex -72.4 39.2 3.5
    endloop
  endfacet
  facet normal -1 0 0
    outer loop
      vertex -72.4 39.2 -1.5
      vertex -72.4 36.2 3.5
      vertex -72.4 39.2 1.5
    endloop
  endfacet
  facet normal 0 -1 0
    outer loop
      vertex -72.4 31.2 1.5
      vertex -72.4 31.2 -1.5
      vertex -2.5 31.2 -1.5
    endloop
  endfacet
  facet normal 0 -1 0
    outer loop
      vertex -2.5 31.2 1.5
      vertex -72.4 31.2 1.5
      vertex -2.5 31.2 -1.5
    endloop
  endfacet
  facet normal -1 0 0
    outer loop
      vertex -2.5 -31.2 -1.5
      vertex -2.5 -31.2 1.5
      vertex -2.5 31.2 -1.5
    endloop
  endfacet
  facet normal -1 0 0
    outer loop
      vertex -2.5 31.2 -1.5
      vertex -2.5 -31.2 1.5
      vertex -2.5 31.2 1.5
    endloop
  endfacet
  facet normal 0 1 0
    outer loop
      vertex -67.4 -31.2 -1.5
      vertex -67.4 -31.2 1.5
      vertex -2.5 -31.2 -1.5
    endloop
  endfacet
  facet normal 0 1 0
    outer loop
      vertex -2.5 -31.2 -1.5
      vertex -67.4 -31.2 1.5
      vertex -2.5 -31.2 1.5
    endloop
  endfacet
  facet normal 1 0 0
    outer loop
      vertex -67.4 -31.2 1.5
      vertex -67.4 -31.2 -1.5
      vertex -67.4 25.2 -1.5
    endloop
  endfacet
  facet normal 1 0 0
    outer loop
      vertex -67.4 25.2 1.5
      vertex -67.4 -31.2 1.5
      vertex -67.4 25.2 -1.5
    endloop
  endfacet
  facet normal 0 1 0
    outer loop
      vertex -72.4 25.2 -1.5
      vertex -72.4 25.2 1.5
      vertex -67.4 25.2 -1.5
    endloop
  endfacet
  facet normal 0 1 0
    outer loop
      vertex -67.4 25.2 -1.5
      vertex -72.4 25.2 1.5
      vertex -67.4 25.2 1.5
    endloop
  endfacet
  facet normal 1 0 0
    outer loop
      vertex -67.4 44.2 1.5
      vertex -67.4 44.2 -1.5
      vertex -67.4 58.2 -1.5
    endloop
  endfacet
  facet normal 1 0 0
    outer loop
      vertex -67.4 58.2 1.5
      vertex -67.4 44.2 1.5
      vertex -67.4 58.2 -1.5
    endloop
  endfacet
  facet normal 0 -1 0
    outer loop
      vertex -67.4 58.2 1.5
      vertex -67.4 58.2 -1.5
      vertex -2.5 58.2 -1.5
    endloop
  endfacet
  facet normal 0 -1 0
    outer loop
      vertex -2.5 58.2 1.5
      vertex -67.4 58.2 1.5
      vertex -2.5 58.2 -1.5
    endloop
  endfacet
  facet normal -1 0 0
    outer loop
      vertex -2.5 44.2 -1.5
      vertex -2.5 44.2 1.5
      vertex -2.5 58.2 -1.5
    endloop
  endfacet
  facet normal -1 0 0
    outer loop
      vertex -2.5 58.2 -1.5
      vertex -2.5 44.2 1.5
      vertex -2.5 58.2 1.5
    endloop
  endfacet
  facet normal 0 1 0
    outer loop
      vertex -67.4 44.2 -1.5
      vertex -67.4 44.2 1.5
      vertex -2.5 44.2 -1.5
    endloop
  endfacet
  facet normal 0 1 0
    outer loop
      vertex -2.5 44.2 -1.5
      vertex -67.4 44.2 1.5
      vertex -2.5 44.2 1.5
    endloop
  endfacet
  facet normal 1 0 0
    outer loop
      vertex -35 -39.2 -1.5
      vertex -35 -39.2 1.5
      vertex -35 -44.2 1.5
    endloop
  endfacet
  facet normal 1 0 0
    outer loop
      vertex -35 -44.2 -1.5
      vertex -35 -39.2 -1.5
      vertex -35 -44.2 1.5
    endloop
  endfacet
  facet normal -1 0 0
    outer loop
      vertex -25 -39.2 1.5
      vertex -25 -39.2 -1.5
      vertex -25 -44.2 1.5
    endloop
  endfacet
  facet normal -1 0 0
    outer loop
      vertex -25 -44.2 1.5
      vertex -25 -39.2 -1.5
      vertex -25 -44.2 -1.5
    endloop
  endfacet
  facet normal 0 1 0
    outer loop
      vertex -25 -44.2 1.5
      vertex -25 -44.2 -1.5
      vertex -35 -44.2 1.5
    endloop
  endfacet
  facet normal 0 1 0
    outer loop
      vertex -35 -44.2 1.5
      vertex -25 -44.2 -1.5
      vertex -35 -44.2 -1.5
    endloop
  endfacet
  facet normal 1 0 0
    outer loop
      vertex 2.5 -31.2 1.5
      vertex 2.5 -31.2 -1.5
      vertex 2.5 31.2 -1.5
    endloop
  endfacet
  facet normal 1 0 0
    outer loop
      vertex 2.5 31.2 1.5
      vertex 2.5 -31.2 1.5
      vertex 2.5 31.2 -1.5
    endloop
  endfacet
  facet normal 0 -1 0
    outer loop
      vertex 2.5 31.2 1.5
      vertex 2.5 31.2 -1.5
      vertex 67.4 31.2 -1.5
    endloop
  endfacet
  facet normal 0 -1 0
    outer loop
      vertex 67.4 31.2 1.5
      vertex 2.5 31.2 1.5
      vertex 67.4 31.2 -1.5
    endloop
  endfacet
  facet normal -1 0 0
    outer loop
      vertex 67.4 -31.2 -1.5
      vertex 67.4 -31.2 1.5
      vertex 67.4 31.2 -1.5
    endloop
  endfacet
  facet normal -1 0 0
    outer loop
      vertex 67.4 31.2 -1.5
      vertex 67.4 -31.2 1.5
      vertex 67.4 31.2 1.5
    endloop
  endfacet
  facet normal 0 1 0
    outer loop
      vertex 2.5 -31.2 -1.5
      vertex 2.5 -31.2 1.5
      vertex 67.4 -31.2 -1.5
    endloop
  endfacet
  facet normal 0 1 0
    outer loop
      vertex 67.4 -31.2 -1.5
      vertex 2.5 -31.2 1.5
      vertex 67.4 -31.2 1.5
    endloop
  endfacet
  facet normal 1 0 0
    outer loop
      vertex 2.5 44.2 1.5
      vertex 2.5 44.2 -1.5
      vertex 2.5 58.2 -1.5
    endloop
  endfacet
  facet normal 1 0 0
    outer loop
      vertex 2.5 58.2 1.5
      vertex 2.5 44.2 1.5
      vertex 2.5 58.2 -1.5
    endloop
  endfacet
  facet normal 0 -1 0
    outer loop
      vertex 2.5 58.2 1.5
      vertex 2.5 58.2 -1.5
      vertex 67.4 58.2 -1.5
    endloop
  endfacet
  facet normal 0 -1 0
    outer loop
      vertex 67.4 58.2 1.5
      vertex 2.5 58.2 1.5
      vertex 67.4 58.2 -1.5
    endloop
  endfacet
  facet normal -1 0 0
    outer loop
      vertex 67.4 44.2 -1.5
      vertex 67.4 44.2 1.5
      vertex 67.4 58.2 -1.5
    endloop
  endfacet
  facet normal -1 0 0
    outer loop
      vertex 67.4 58.2 -1.5
      vertex 67.4 44.2 1.5
      vertex 67.4 58.2 1.5
    endloop
  endfacet
  facet normal 0 1 0
    outer loop
      vertex 2.5 44.2 -1.5
      vertex 2.5 44.2 1.5
      vertex 67.4 44.2 -1.5
    endloop
  endfacet
  facet normal 0 1 0
    outer loop
      vertex 67.4 44.2 -1.5
      vertex 2.5 44.2 1.5
      vertex 67.4 44.2 1.5
    endloop
  endfacet
  facet normal 1 0 0
    outer loop
      vertex 25 -39.2 -1.5
      vertex 25 -39.2 1.5
      vertex 25 -44.2 1.5
    endloop
  endfacet
  facet normal 1 0 0
    outer loop
      vertex 25 -44.2 -1.5
      vertex 25 -39.2 -1.5
      vertex 25 -44.2 1.5
    endloop
  endfacet
  facet normal -1 0 0
    outer loop
      vertex 35 -39.2 1.5
      vertex 35 -39.2 -1.5
      vertex 35 -44.2 1.5
    endloop
  endfacet
  facet normal -1 0 0
    outer loop
      vertex 35 -44.2 1.5
      vertex 35 -39.2 -1.5
      vertex 35 -44.2 -1.5
    endloop
  endfacet
  facet normal 0 1 0
    outer loop
      vertex 35 -44.2 1.5
      vertex 35 -44.2 -1.5
      vertex 25 -44.2 1.5
    endloop
  endfacet
  facet normal 0 1 0
    outer loop
      vertex 25 -44.2 1.5
      vertex 35 -44.2 -1.5
      vertex 25 -44.2 -1.5
    endloop
  endfacet
  facet normal 0 0 1
    outer loop
      vertex 67.4 -31.2 1.5
      vertex 2.5 -31.2 1.5
      vertex 72.4 -36.2 1.5
    endloop
  endfacet
  facet normal 0 0 1
    outer loop
      vertex -67.4 -31.2 1.5
      vertex -72.4 25.2 1.5
      vertex -72.4 -36.2 1.5
    endloop
  endfacet
  facet normal 0 0 1
    outer loop
      vertex 72.4 36.2 1.5
      vertex -72.4 36.2 1.5
      vertex -72.4 31.2 1.5
    endloop
  endfacet
  facet normal 0 0 1
    outer loop
      vertex 72.4 36.2 1.5
      vertex -72.4 31.2 1.5
      vertex -2.5 31.2 1.5
    endloop
  endfacet
  facet normal 0 0 1
    outer loop
      vertex 72.4 -36.2 1.5
      vertex -2.5 -31.2 1.5
      vertex -72.4 -36.2 1.5
    endloop
  endfacet
  facet normal 0 0 1
    outer loop
      vertex -2.5 -31.2 1.5
      vertex -67.4 -31.2 1.5
      vertex -72.4 -36.2 1.5
    endloop
  endfacet
  facet normal 0 0 1
    outer loop
      vertex 72.4 -36.2 1.5
      vertex 2.5 -31.2 1.5
      vertex -2.5 -31.2 1.5
    endloop
  endfacet
  facet normal 0 0 1
    outer loop
      vertex -67.4 -31.2 1.5
      vertex -67.4 25.2 1.5
      vertex -72.4 25.2 1.5
    endloop
  endfacet
  facet normal 0 0 1
    outer loop
      vertex 72.4 36.2 1.5
      vertex -2.5 31.2 1.5
      vertex 2.5 31.2 1.5
    endloop
  endfacet
  facet normal 0 0 1
    outer loop
      vertex 72.4 -36.2 1.5
      vertex 72.4 36.2 1.5
      vertex 67.4 31.2 1.5
    endloop
  endfacet
  facet normal 0 0 1
    outer loop
      vertex 72.4 -36.2 1.5
      vertex 67.4 31.2 1.5
      vertex 67.4 -31.2 1.5
    endloop
  endfacet
  facet normal 0 0 1
    outer loop
      vertex 2.5 31.2 1.5
      vertex 67.4 31.2 1.5
      vertex 72.4 36.2 1.5
    endloop
  endfacet
  facet normal 0 0 1
    outer loop
      vertex 2.5 -31.2 1.5
      vertex 2.5 31.2 1.5
      vertex -2.5 31.2 1.5
    endloop
  endfacet
  facet normal 0 0 1
    outer loop
      vertex -2.5 31.2 1.5
      vertex -2.5 -31.2 1.5
      vertex 2.5 -31.2 1.5
    endloop
  endfacet
  facet normal 0 1 0
    outer loop
      vertex -31.2 -36.2 3.5
      vertex 72.4 -36.2 1.5
      vertex -41.2 -36.2 3.5
    endloop
  endfacet
  facet normal 0 1 0
    outer loop
      vertex -41.2 -36.2 3.5
      vertex 72.4 -36.2 1.5
      vertex -72.4 -36.2 3.5
    endloop
  endfacet
  facet normal 0 1 0
    outer loop
      vertex 31.2 -36.2 3.5
      vertex 72.4 -36.2 1.5
      vertex -31.2 -36.2 3.5
    endloop
  endfacet
  facet normal 0 1 0
    outer loop
      vertex 41.2 -36.2 3.5
      vertex 72.4 -36.2 1.5
      vertex 31.2 -36.2 3.5
    endloop
  endfacet
  facet normal 0 1 0
    outer loop
      vertex 72.4 -36.2 3.5
      vertex 72.4 -36.2 1.5
      vertex 41.2 -36.2 3.5
    endloop
  endfacet
  facet normal 0 1 0
    outer loop
      vertex -72.4 -36.2 3.5
      vertex 72.4 -36.2 1.5
      vertex -72.4 -36.2 1.5
    endloop
  endfacet
  facet normal 0 0 1
    outer loop
      vertex -31.2 -38.2 3.5
      vertex -72.4 -39.2 3.5
      vertex 72.4 -39.2 3.5
    endloop
  endfacet
  facet normal 0 0 1
    outer loop
      vertex -41.2 -38.2 3.5
      vertex -41.2 -36.2 3.5
      vertex -72.4 -36.2 3.5
    endloop
  endfacet
  facet normal 0 0 1
    outer loop
      vertex 72.4 -36.2 3.5
      vertex 41.2 -36.2 3.5
      vertex 72.4 -39.2 3.5
    endloop
  endfacet
  facet normal 0 0 1
    outer loop
      vertex 41.2 -36.2 3.5
      vertex 41.2 -38.2 3.5
      vertex 72.4 -39.2 3.5
    endloop
  endfacet
  facet normal 0 0 1
    outer loop
      vertex 31.2 -38.2 3.5
      vertex -31.2 -38.2 3.5
      vertex 72.4 -39.2 3.5
    endloop
  endfacet
  facet normal 0 0 1
    outer loop
      vertex 41.2 -38.2 3.5
      vertex 31.2 -38.2 3.5
      vertex 72.4 -39.2 3.5
    endloop
  endfacet
  facet normal 0 0 1
    outer loop
      vertex -31.2 -36.2 3.5
      vertex -31.2 -38.2 3.5
      vertex 31.2 -38.2 3.5
    endloop
  endfacet
  facet normal 0 0 1
    outer loop
      vertex -41.2 -38.2 3.5
      vertex -72.4 -39.2 3.5
      vertex -31.2 -38.2 3.5
    endloop
  endfacet
  facet normal 0 0 1
    outer loop
      vertex -72.4 -36.2 3.5
      vertex -72.4 -39.2 3.5
      vertex -41.2 -38.2 3.5
    endloop
  endfacet
  facet normal 0 0 1
    outer loop
      vertex 31.2 -38.2 3.5
      vertex 31.2 -36.2 3.5
      vertex -31.2 -36.2 3.5
    endloop
  endfacet
  facet normal 0 0 1
    outer loop
      vertex 25 -44.2 1.5
      vertex 21 -48.2 1.5
      vertex 39 -48.2 1.5
    endloop
  endfacet
  facet normal 0 0 1
    outer loop
      vertex 25 -44.2 1.5
      vertex 25 -39.2 1.5
      vertex 21 -39.2 1.5
    endloop
  endfacet
  facet normal 0 0 1
    outer loop
      vertex 39 -39.2 1.5
      vertex 35 -39.2 1.5
      vertex 39 -48.2 1.5
    endloop
  endfacet
  facet normal 0 0 1
    outer loop
      vertex 35 -39.2 1.5
      vertex 35 -44.2 1.5
      vertex 39 -48.2 1.5
    endloop
  endfacet
  facet normal 0 0 1
    outer loop
      vertex 21 -39.2 1.5
      vertex 21 -48.2 1.5
      vertex 25 -44.2 1.5
    endloop
  endfacet
  facet normal 0 0 1
    outer loop
      vertex 35 -44.2 1.5
      vertex 25 -44.2 1.5
      vertex 39 -48.2 1.5
    endloop
  endfacet
  facet normal 0 0 1
    outer loop
      vertex -35 -44.2 1.5
      vertex -39 -48.2 1.5
      vertex -21 -48.2 1.5
    endloop
  endfacet
  facet normal 0 0 1
    outer loop
      vertex -35 -44.2 1.5
      vertex -35 -39.2 1.5
      vertex -39 -39.2 1.5
    endloop
  endfacet
  facet normal 0 0 1
    outer loop
      vertex -21 -39.2 1.5
      vertex -25 -39.2 1.5
      vertex -21 -48.2 1.5
    endloop
  endfacet
  facet normal 0 0 1
    outer loop
      vertex -25 -39.2 1.5
      vertex -25 -44.2 1.5
      vertex -21 -48.2 1.5
    endloop
  endfacet
  facet normal 0 0 1
    outer loop
      vertex -39 -39.2 1.5
      vertex -39 -48.2 1.5
      vertex -35 -44.2 1.5
    endloop
  endfacet
  facet normal 0 0 1
    outer loop
      vertex -25 -44.2 1.5
      vertex -35 -44.2 1.5
      vertex -21 -48.2 1.5
    endloop
  endfacet
  facet normal 0 0 1
    outer loop
      vertex 72.4 39.2 3.5
      vertex 72.4 -39.2 3.5
      vertex 75.4 -39.2 3.5
    endloop
  endfacet
  facet normal 0 0 1
    outer loop
      vertex 75.4 39.2 3.5
      vertex 72.4 39.2 3.5
      vertex 75.4 -39.2 3.5
    endloop
  endfacet
  facet normal 0 -1 0
    outer loop
      vertex -72.4 36.2 3.5
      vertex -72.4 36.2 1.5
      vertex 72.4 36.2 1.5
    endloop
  endfacet
  facet normal 0 -1 0
    outer loop
      vertex -41.2 36.2 3.5
      vertex -72.4 36.2 3.5
      vertex 72.4 36.2 1.5
    endloop
  endfacet
  facet normal 0 -1 0
    outer loop
      vertex 72.4 36.2 3.5
      vertex 41.2 36.2 3.5
      vertex 72.4 36.2 1.5
    endloop
  endfacet
  facet normal 0 -1 0
    outer loop
      vertex 41.2 36.2 3.5
      vertex 31.2 36.2 3.5
      vertex 72.4 36.2 1.5
    endloop
  endfacet
  facet normal 0 -1 0
    outer loop
      vertex 31.2 36.2 3.5
      vertex -31.2 36.2 3.5
      vertex 72.4 36.2 1.5
    endloop
  endfacet
  facet normal 0 -1 0
    outer loop
      vertex -31.2 36.2 3.5
      vertex -41.2 36.2 3.5
      vertex 72.4 36.2 1.5
    endloop
  endfacet
  facet normal 0 0 1
    outer loop
      vertex 41.2 39.2 3.5
      vertex 41.2 36.2 3.5
      vertex 72.4 36.2 3.5
    endloop
  endfacet
  facet normal 0 0 1
    outer loop
      vertex 72.4 39.2 3.5
      vertex 41.2 39.2 3.5
      vertex 72.4 36.2 3.5
    endloop
  endfacet
  facet normal 0 1 0
    outer loop
      vertex -72.4 39.2 1.5
      vertex -72.4 39.2 3.5
      vertex 72.4 39.2 1.5
    endloop
  endfacet
  facet normal 0 1 0
    outer loop
      vertex 72.4 39.2 1.5
      vertex -72.4 39.2 3.5
      vertex -41.2 39.2 3.5
    endloop
  endfacet
  facet normal 0 1 0
    outer loop
      vertex 72.4 39.2 1.5
      vertex -41.2 39.2 3.5
      vertex -31.2 39.2 3.5
    endloop
  endfacet
  facet normal 0 1 0
    outer loop
      vertex 72.4 39.2 1.5
      vertex -31.2 39.2 3.5
      vertex 31.2 39.2 3.5
    endloop
  endfacet
  facet normal 0 1 0
    outer loop
      vertex 72.4 39.2 1.5
      vertex 31.2 39.2 3.5
      vertex 41.2 39.2 3.5
    endloop
  endfacet
  facet normal 0 1 0
    outer loop
      vertex 72.4 39.2 1.5
      vertex 41.2 39.2 3.5
      vertex 72.4 39.2 3.5
    endloop
  endfacet
  facet normal 0 0 1
    outer loop
      vertex -67.4 44.2 1.5
      vertex -72.4 63.2 1.5
      vertex -72.4 39.2 1.5
    endloop
  endfacet
  facet normal 0 0 1
    outer loop
      vertex 72.4 39.2 1.5
      vertex -67.4 44.2 1.5
      vertex -72.4 39.2 1.5
    endloop
  endfacet
  facet normal 0 0 1
    outer loop
      vertex -67.4 58.2 1.5
      vertex -72.4 63.2 1.5
      vertex -67.4 44.2 1.5
    endloop
  endfacet
  facet normal 0 0 1
    outer loop
      vertex -2.5 58.2 1.5
      vertex -2.5 44.2 1.5
      vertex 2.5 44.2 1.5
    endloop
  endfacet
  facet normal 0 0 1
    outer loop
      vertex 72.4 63.2 1.5
      vertex -72.4 63.2 1.5
      vertex -2.5 58.2 1.5
    endloop
  endfacet
  facet normal 0 0 1
    outer loop
      vertex 72.4 39.2 1.5
      vertex -2.5 44.2 1.5
      vertex -67.4 44.2 1.5
    endloop
  endfacet
  facet normal 0 0 1
    outer loop
      vertex 2.5 44.2 1.5
      vertex 2.5 58.2 1.5
      vertex -2.5 58.2 1.5
    endloop
  endfacet
  facet normal 0 0 1
    outer loop
      vertex 72.4 39.2 1.5
      vertex 2.5 44.2 1.5
      vertex -2.5 44.2 1.5
    endloop
  endfacet
  facet normal 0 0 1
    outer loop
      vertex 72.4 63.2 1.5
      vertex -2.5 58.2 1.5
      vertex 2.5 58.2 1.5
    endloop
  endfacet
  facet normal 0 0 1
    outer loop
      vertex 72.4 63.2 1.5
      vertex 67.4 58.2 1.5
      vertex 72.4 39.2 1.5
    endloop
  endfacet
  facet normal 0 0 1
    outer loop
      vertex 72.4 63.2 1.5
      vertex 2.5 58.2 1.5
      vertex 67.4 58.2 1.5
    endloop
  endfacet
  facet normal 0 0 1
    outer loop
      vertex 67.4 58.2 1.5
      vertex 67.4 44.2 1.5
      vertex 72.4 39.2 1.5
    endloop
  endfacet
  facet normal 0 0 1
    outer loop
      vertex -67.4 58.2 1.5
      vertex -2.5 58.2 1.5
      vertex -72.4 63.2 1.5
    endloop
  endfacet
  facet normal 0 0 1
    outer loop
      vertex 67.4 44.2 1.5
      vertex 2.5 44.2 1.5
      vertex 72.4 39.2 1.5
    endloop
  endfacet
  facet normal -1 0 0
    outer loop
      vertex 72.4 63.2 3.5
      vertex 72.4 63.2 1.5
      vertex 72.4 39.2 3.5
    endloop
  endfacet
  facet normal -1 0 0
    outer loop
      vertex 72.4 39.2 3.5
      vertex 72.4 63.2 1.5
      vertex 72.4 39.2 1.5
    endloop
  endfacet
  facet normal 0 0 1
    outer loop
      vertex 41.2 66.2 3.5
      vertex 41.2 63.2 3.5
      vertex 72.4 63.2 3.5
    endloop
  endfacet
  facet normal 0 0 1
    outer loop
      vertex 75.4 63.2 3.5
      vertex 41.2 66.2 3.5
      vertex 72.4 63.2 3.5
    endloop
  endfacet
  facet normal 0 0 1
    outer loop
      vertex 72.4 39.2 3.5
      vertex 75.4 39.2 3.5
      vertex 72.4 63.2 3.5
    endloop
  endfacet
  facet normal 0 0 1
    outer loop
      vertex 75.4 39.2 3.5
      vertex 75.4 63.2 3.5
      vertex 72.4 63.2 3.5
    endloop
  endfacet
  facet normal 0 0 1
    outer loop
      vertex 75.4 63.2 3.5
      vertex 75.4 66.2 3.5
      vertex 41.2 66.2 3.5
    endloop
  endfacet
  facet normal 1 0 0
    outer loop
      vertex 41.2 60.2 5.5
      vertex 41.2 60.2 3.5
      vertex 41.2 63.2 3.5
    endloop
  endfacet
  facet normal 1 0 0
    outer loop
      vertex 41.2 66.2 5.5
      vertex 41.2 60.2 5.5
      vertex 41.2 66.2 3.5
    endloop
  endfacet
  facet normal 1 0 0
    outer loop
      vertex 41.2 66.2 3.5
      vertex 41.2 60.2 5.5
      vertex 41.2 63.2 3.5
    endloop
  endfacet
  facet normal 0 0 1
    outer loop
      vertex 31.2 66.2 5.5
      vertex 31.2 60.2 5.5
      vertex 41.2 60.2 5.5
    endloop
  endfacet
  facet normal 0 0 1
    outer loop
      vertex 41.2 66.2 5.5
      vertex 31.2 66.2 5.5
      vertex 41.2 60.2 5.5
    endloop
  endfacet
  facet normal -1 0 0
    outer loop
      vertex 31.2 60.2 3.5
      vertex 31.2 60.2 5.5
      vertex 31.2 63.2 3.5
    endloop
  endfacet
  facet normal -1 0 0
    outer loop
      vertex 31.2 63.2 3.5
      vertex 31.2 60.2 5.5
      vertex 31.2 66.2 5.5
    endloop
  endfacet
  facet normal -1 0 0
    outer loop
      vertex 31.2 63.2 3.5
      vertex 31.2 66.2 5.5
      vertex 31.2 66.2 3.5
    endloop
  endfacet
  facet normal 0 0 1
    outer loop
      vertex -31.2 66.2 3.5
      vertex -31.2 63.2 3.5
      vertex 31.2 63.2 3.5
    endloop
  endfacet
  facet normal 0 0 1
    outer loop
      vertex 31.2 66.2 3.5
      vertex -31.2 66.2 3.5
      vertex 31.2 63.2 3.5
    endloop
  endfacet
  facet normal 1 0 0
    outer loop
      vertex -31.2 60.2 5.5
      vertex -31.2 60.2 3.5
      vertex -31.2 63.2 3.5
    endloop
  endfacet
  facet normal 1 0 0
    outer loop
      vertex -31.2 66.2 5.5
      vertex -31.2 60.2 5.5
      vertex -31.2 66.2 3.5
    endloop
  endfacet
  facet normal 1 0 0
    outer loop
      vertex -31.2 66.2 3.5
      vertex -31.2 60.2 5.5
      vertex -31.2 63.2 3.5
    endloop
  endfacet
  facet normal 0 0 1
    outer loop
      vertex -41.2 66.2 5.5
      vertex -41.2 60.2 5.5
      vertex -31.2 60.2 5.5
    endloop
  endfacet
  facet normal 0 0 1
    outer loop
      vertex -31.2 66.2 5.5
      vertex -41.2 66.2 5.5
      vertex -31.2 60.2 5.5
    endloop
  endfacet
  facet normal -1 0 0
    outer loop
      vertex -41.2 60.2 3.5
      vertex -41.2 60.2 5.5
      vertex -41.2 63.2 3.5
    endloop
  endfacet
  facet normal -1 0 0
    outer loop
      vertex -41.2 63.2 3.5
      vertex -41.2 60.2 5.5
      vertex -41.2 66.2 5.5
    endloop
  endfacet
  facet normal -1 0 0
    outer loop
      vertex -41.2 63.2 3.5
      vertex -41.2 66.2 5.5
      vertex -41.2 66.2 3.5
    endloop
  endfacet
  facet normal 0 0 1
    outer loop
      vertex -75.4 63.2 3.5
      vertex -75.4 39.2 3.5
      vertex -72.4 39.2 3.5
    endloop
  endfacet
  facet normal 0 0 1
    outer loop
      vertex -72.4 63.2 3.5
      vertex -75.4 63.2 3.5
      vertex -72.4 39.2 3.5
    endloop
  endfacet
  facet normal 0 0 1
    outer loop
      vertex -41.2 66.2 3.5
      vertex -72.4 63.2 3.5
      vertex -41.2 63.2 3.5
    endloop
  endfacet
  facet normal 0 0 1
    outer loop
      vertex -41.2 66.2 3.5
      vertex -75.4 63.2 3.5
      vertex -72.4 63.2 3.5
    endloop
  endfacet
  facet normal 0 0 1
    outer loop
      vertex -75.4 66.2 3.5
      vertex -75.4 63.2 3.5
      vertex -41.2 66.2 3.5
    endloop
  endfacet
  facet normal 1 0 0
    outer loop
      vertex -72.4 63.2 1.5
      vertex -72.4 63.2 3.5
      vertex -72.4 39.2 3.5
    endloop
  endfacet
  facet normal 1 0 0
    outer loop
      vertex -72.4 39.2 1.5
      vertex -72.4 63.2 1.5
      vertex -72.4 39.2 3.5
    endloop
  endfacet
  facet normal 0 0 1
    outer loop
      vertex -72.4 39.2 3.5
      vertex -72.4 36.2 3.5
      vertex -41.2 36.2 3.5
    endloop
  endfacet
  facet normal 0 0 1
    outer loop
      vertex -41.2 39.2 3.5
      vertex -72.4 39.2 3.5
      vertex -41.2 36.2 3.5
    endloop
  endfacet
  facet normal 1 0 0
    outer loop
      vertex 41.2 -38.2 5.5
      vertex 41.2 -38.2 3.5
      vertex 41.2 -36.2 3.5
    endloop
  endfacet
  facet normal 1 0 0
    outer loop
      vertex 41.2 -34.2 5.5
      vertex 41.2 -38.2 5.5
      vertex 41.2 -34.2 3.5
    endloop
  endfacet
  facet normal 1 0 0
    outer loop
      vertex 41.2 -34.2 3.5
      vertex 41.2 -38.2 5.5
      vertex 41.2 -36.2 3.5
    endloop
  endfacet
  facet normal 0 0 -1
    outer loop
      vertex 41.2 -34.2 3.5
      vertex 41.2 -36.2 3.5
      vertex 31.2 -34.2 3.5
    endloop
  endfacet
  facet normal 0 0 -1
    outer loop
      vertex 31.2 -34.2 3.5
      vertex 41.2 -36.2 3.5
      vertex 31.2 -36.2 3.5
    endloop
  endfacet
  facet normal -1 0 0
    outer loop
      vertex 31.2 -38.2 3.5
      vertex 31.2 -38.2 5.5
      vertex 31.2 -36.2 3.5
    endloop
  endfacet
  facet normal -1 0 0
    outer loop
      vertex 31.2 -36.2 3.5
      vertex 31.2 -38.2 5.5
      vertex 31.2 -34.2 5.5
    endloop
  endfacet
  facet normal -1 0 0
    outer loop
      vertex 31.2 -36.2 3.5
      vertex 31.2 -34.2 5.5
      vertex 31.2 -34.2 3.5
    endloop
  endfacet
  facet normal 1 0 0
    outer loop
      vertex -31.2 -38.2 5.5
      vertex -31.2 -38.2 3.5
      vertex -31.2 -36.2 3.5
    endloop
  endfacet
  facet normal 1 0 0
    outer loop
      vertex -31.2 -34.2 5.5
      vertex -31.2 -38.2 5.5
      vertex -31.2 -34.2 3.5
    endloop
  endfacet
  facet normal 1 0 0
    outer loop
      vertex -31.2 -34.2 3.5
      vertex -31.2 -38.2 5.5
      vertex -31.2 -36.2 3.5
    endloop
  endfacet
  facet normal 0 0 -1
    outer loop
      vertex -31.2 -34.2 3.5
      vertex -31.2 -36.2 3.5
      vertex -41.2 -34.2 3.5
    endloop
  endfacet
  facet normal 0 0 -1
    outer loop
      vertex -41.2 -34.2 3.5
      vertex -31.2 -36.2 3.5
      vertex -41.2 -36.2 3.5
    endloop
  endfacet
  facet normal -1 0 0
    outer loop
      vertex -41.2 -38.2 3.5
      vertex -41.2 -38.2 5.5
      vertex -41.2 -36.2 3.5
    endloop
  endfacet
  facet normal -1 0 0
    outer loop
      vertex -41.2 -36.2 3.5
      vertex -41.2 -38.2 5.5
      vertex -41.2 -34.2 5.5
    endloop
  endfacet
  facet normal -1 0 0
    outer loop
      vertex -41.2 -36.2 3.5
      vertex -41.2 -34.2 5.5
      vertex -41.2 -34.2 3.5
    endloop
  endfacet
  facet normal 0 -1 0
    outer loop
      vertex -41.2 -38.2 5.5
      vertex -41.2 -38.2 3.5
      vertex -31.2 -38.2 3.5
    endloop
  endfacet
  facet normal 0 -1 0
    outer loop
      vertex -31.2 -38.2 5.5
      vertex -41.2 -38.2 5.5
      vertex -31.2 -38.2 3.5
    endloop
  endfacet
  facet normal 0 -1 0
    outer loop
      vertex 31.2 -38.2 5.5
      vertex 31.2 -38.2 3.5
      vertex 41.2 -38.2 3.5
    endloop
  endfacet
  facet normal 0 -1 0
    outer loop
      vertex 41.2 -38.2 5.5
      vertex 31.2 -38.2 5.5
      vertex 41.2 -38.2 3.5
    endloop
  endfacet
  facet normal 0 0 -1
    outer loop
      vertex -31.2 36.2 3.5
      vertex -31.2 34.2 3.5
      vertex -41.2 36.2 3.5
    endloop
  endfacet
  facet normal 0 0 -1
    outer loop
      vertex -41.2 36.2 3.5
      vertex -31.2 34.2 3.5
      vertex -41.2 34.2 3.5
    endloop
  endfacet
  facet normal -1 0 0
    outer loop
      vertex -41.2 34.2 3.5
      vertex -41.2 34.2 5.5
      vertex -41.2 36.2 3.5
    endloop
  endfacet
  facet normal -1 0 0
    outer loop
      vertex -41.2 36.2 3.5
      vertex -41.2 34.2 5.5
      vertex -41.2 42.2 5.5
    endloop
  endfacet
  facet normal -1 0 0
    outer loop
      vertex -41.2 39.2 3.5
      vertex -41.2 42.2 5.5
      vertex -41.2 42.2 3.5
    endloop
  endfacet
  facet normal -1 0 0
    outer loop
      vertex -41.2 36.2 3.5
      vertex -41.2 42.2 5.5
      vertex -41.2 39.2 3.5
    endloop
  endfacet
  facet normal 1 0 0
    outer loop
      vertex -31.2 34.2 5.5
      vertex -31.2 34.2 3.5
      vertex -31.2 36.2 3.5
    endloop
  endfacet
  facet normal 1 0 0
    outer loop
      vertex -31.2 42.2 3.5
      vertex -31.2 34.2 5.5
      vertex -31.2 39.2 3.5
    endloop
  endfacet
  facet normal 1 0 0
    outer loop
      vertex -31.2 39.2 3.5
      vertex -31.2 34.2 5.5
      vertex -31.2 36.2 3.5
    endloop
  endfacet
  facet normal 1 0 0
    outer loop
      vertex -31.2 42.2 5.5
      vertex -31.2 34.2 5.5
      vertex -31.2 42.2 3.5
    endloop
  endfacet
  facet normal 0 0 1
    outer loop
      vertex -31.2 39.2 3.5
      vertex -31.2 36.2 3.5
      vertex 31.2 36.2 3.5
    endloop
  endfacet
  facet normal 0 0 1
    outer loop
      vertex 31.2 39.2 3.5
      vertex -31.2 39.2 3.5
      vertex 31.2 36.2 3.5
    endloop
  endfacet
  facet normal 0 0 -1
    outer loop
      vertex 41.2 36.2 3.5
      vertex 41.2 34.2 3.5
      vertex 31.2 36.2 3.5
    endloop
  endfacet
  facet normal 0 0 -1
    outer loop
      vertex 31.2 36.2 3.5
      vertex 41.2 34.2 3.5
      vertex 31.2 34.2 3.5
    endloop
  endfacet
  facet normal -1 0 0
    outer loop
      vertex 31.2 34.2 3.5
      vertex 31.2 34.2 5.5
      vertex 31.2 36.2 3.5
    endloop
  endfacet
  facet normal -1 0 0
    outer loop
      vertex 31.2 36.2 3.5
      vertex 31.2 34.2 5.5
      vertex 31.2 42.2 5.5
    endloop
  endfacet
  facet normal -1 0 0
    outer loop
      vertex 31.2 39.2 3.5
      vertex 31.2 42.2 5.5
      vertex 31.2 42.2 3.5
    endloop
  endfacet
  facet normal -1 0 0
    outer loop
      vertex 31.2 36.2 3.5
      vertex 31.2 42.2 5.5
      vertex 31.2 39.2 3.5
    endloop
  endfacet
  facet normal 1 0 0
    outer loop
      vertex 41.2 34.2 5.5
      vertex 41.2 34.2 3.5
      vertex 41.2 36.2 3.5
    endloop
  endfacet
  facet normal 1 0 0
    outer loop
      vertex 41.2 42.2 3.5
      vertex 41.2 34.2 5.5
      vertex 41.2 39.2 3.5
    endloop
  endfacet
  facet normal 1 0 0
    outer loop
      vertex 41.2 39.2 3.5
      vertex 41.2 34.2 5.5
      vertex 41.2 36.2 3.5
    endloop
  endfacet
  facet normal 1 0 0
    outer loop
      vertex 41.2 42.2 5.5
      vertex 41.2 34.2 5.5
      vertex 41.2 42.2 3.5
    endloop
  endfacet
  facet normal 0 0 -1
    outer loop
      vertex 41.2 42.2 3.5
      vertex 41.2 39.2 3.5
      vertex 31.2 42.2 3.5
    endloop
  endfacet
  facet normal 0 0 -1
    outer loop
      vertex 31.2 42.2 3.5
      vertex 41.2 39.2 3.5
      vertex 31.2 39.2 3.5
    endloop
  endfacet
  facet normal 0 0 -1
    outer loop
      vertex -31.2 42.2 3.5
      vertex -31.2 39.2 3.5
      vertex -41.2 42.2 3.5
    endloop
  endfacet
  facet normal 0 0 -1
    outer loop
      vertex -41.2 42.2 3.5
      vertex -31.2 39.2 3.5
      vertex -41.2 39.2 3.5
    endloop
  endfacet
  facet normal 0 -1 0
    outer loop
      vertex 72.4 63.2 1.5
      vertex 72.4 63.2 3.5
      vertex 41.2 63.2 3.5
    endloop
  endfacet
  facet normal 0 -1 0
    outer loop
      vertex -31.2 63.2 3.5
      vertex 72.4 63.2 1.5
      vertex 31.2 63.2 3.5
    endloop
  endfacet
  facet normal 0 -1 0
    outer loop
      vertex 31.2 63.2 3.5
      vertex 72.4 63.2 1.5
      vertex 41.2 63.2 3.5
    endloop
  endfacet
  facet normal 0 -1 0
    outer loop
      vertex -41.2 63.2 3.5
      vertex 72.4 63.2 1.5
      vertex -31.2 63.2 3.5
    endloop
  endfacet
  facet normal 0 -1 0
    outer loop
      vertex -72.4 63.2 3.5
      vertex 72.4 63.2 1.5
      vertex -41.2 63.2 3.5
    endloop
  endfacet
  facet normal 0 -1 0
    outer loop
      vertex -72.4 63.2 1.5
      vertex 72.4 63.2 1.5
      vertex -72.4 63.2 3.5
    endloop
  endfacet
  facet normal 0 0 -1
    outer loop
      vertex 41.2 63.2 3.5
      vertex 41.2 60.2 3.5
      vertex 31.2 63.2 3.5
    endloop
  endfacet
  facet normal 0 0 -1
    outer loop
      vertex 31.2 63.2 3.5
      vertex 41.2 60.2 3.5
      vertex 31.2 60.2 3.5
    endloop
  endfacet
  facet normal 0 -1 0
    outer loop
      vertex 31.2 60.2 5.5
      vertex 31.2 60.2 3.5
      vertex 41.2 60.2 3.5
    endloop
  endfacet
  facet normal 0 -1 0
    outer loop
      vertex 41.2 60.2 5.5
      vertex 31.2 60.2 5.5
      vertex 41.2 60.2 3.5
    endloop
  endfacet
  facet normal 0 0 -1
    outer loop
      vertex -31.2 63.2 3.5
      vertex -31.2 60.2 3.5
      vertex -41.2 63.2 3.5
    endloop
  endfacet
  facet normal 0 0 -1
    outer loop
      vertex -41.2 63.2 3.5
      vertex -31.2 60.2 3.5
      vertex -41.2 60.2 3.5
    endloop
  endfacet
  facet normal 0 -1 0
    outer loop
      vertex -41.2 60.2 5.5
      vertex -41.2 60.2 3.5
      vertex -31.2 60.2 3.5
    endloop
  endfacet
  facet normal 0 -1 0
    outer loop
      vertex -31.2 60.2 5.5
      vertex -41.2 60.2 5.5
      vertex -31.2 60.2 3.5
    endloop
  endfacet
  facet normal 0 0 1
    outer loop
      vertex 31.2 -34.2 5.5
      vertex 31.2 -38.2 5.5
      vertex 41.2 -38.2 5.5
    endloop
  endfacet
  facet normal 0 0 1
    outer loop
      vertex 41.2 -34.2 5.5
      vertex 31.2 -34.2 5.5
      vertex 41.2 -38.2 5.5
    endloop
  endfacet
  facet normal 0 1 0
    outer loop
      vertex 31.2 -34.2 3.5
      vertex 31.2 -34.2 5.5
      vertex 41.2 -34.2 3.5
    endloop
  endfacet
  facet normal 0 1 0
    outer loop
      vertex 41.2 -34.2 3.5
      vertex 31.2 -34.2 5.5
      vertex 41.2 -34.2 5.5
    endloop
  endfacet
  facet normal 0 0 1
    outer loop
      vertex -41.2 -34.2 5.5
      vertex -41.2 -38.2 5.5
      vertex -31.2 -38.2 5.5
    endloop
  endfacet
  facet normal 0 0 1
    outer loop
      vertex -31.2 -34.2 5.5
      vertex -41.2 -34.2 5.5
      vertex -31.2 -38.2 5.5
    endloop
  endfacet
  facet normal 0 1 0
    outer loop
      vertex -41.2 -34.2 3.5
      vertex -41.2 -34.2 5.5
      vertex -31.2 -34.2 3.5
    endloop
  endfacet
  facet normal 0 1 0
    outer loop
      vertex -31.2 -34.2 3.5
      vertex -41.2 -34.2 5.5
      vertex -31.2 -34.2 5.5
    endloop
  endfacet
  facet normal 0 -1 0
    outer loop
      vertex -41.2 34.2 5.5
      vertex -41.2 34.2 3.5
      vertex -31.2 34.2 3.5
    endloop
  endfacet
  facet normal 0 -1 0
    outer loop
      vertex -31.2 34.2 5.5
      vertex -41.2 34.2 5.5
      vertex -31.2 34.2 3.5
    endloop
  endfacet
  facet normal 0 1 0
    outer loop
      vertex -41.2 42.2 3.5
      vertex -41.2 42.2 5.5
      vertex -31.2 42.2 3.5
    endloop
  endfacet
  facet normal 0 1 0
    outer loop
      vertex -31.2 42.2 3.5
      vertex -41.2 42.2 5.5
      vertex -31.2 42.2 5.5
    endloop
  endfacet
  facet normal 0 0 1
    outer loop
      vertex -41.2 42.2 5.5
      vertex -41.2 34.2 5.5
      vertex -31.2 34.2 5.5
    endloop
  endfacet
  facet normal 0 0 1
    outer loop
      vertex -31.2 42.2 5.5
      vertex -41.2 42.2 5.5
      vertex -31.2 34.2 5.5
    endloop
  endfacet
  facet normal 0 -1 0
    outer loop
      vertex 31.2 34.2 5.5
      vertex 31.2 34.2 3.5
      vertex 41.2 34.2 3.5
    endloop
  endfacet
  facet normal 0 -1 0
    outer loop
      vertex 41.2 34.2 5.5
      vertex 31.2 34.2 5.5
      vertex 41.2 34.2 3.5
    endloop
  endfacet
  facet normal 0 1 0
    outer loop
      vertex 31.2 42.2 3.5
      vertex 31.2 42.2 5.5
      vertex 41.2 42.2 3.5
    endloop
  endfacet
  facet normal 0 1 0
    outer loop
      vertex 41.2 42.2 3.5
      vertex 31.2 42.2 5.5
      vertex 41.2 42.2 5.5
    endloop
  endfacet
  facet normal 0 0 1
    outer loop
      vertex 31.2 42.2 5.5
      vertex 31.2 34.2 5.5
      vertex 41.2 34.2 5.5
    endloop
  endfacet
  facet normal 0 0 1
    outer loop
      vertex 41.2 42.2 5.5
      vertex 31.2 42.2 5.5
      vertex 41.2 34.2 5.5
    endloop
  endfacet
endsolid OpenSCAD_Model
