solid OpenSCAD_Model
  facet normal -1 0 0
    outer loop
      vertex -2.2 7.5 -4.7
      vertex -2.2 -7.5 -4.7
      vertex -2.2 7.5 4.7
    endloop
  endfacet
  facet normal -1 0 0
    outer loop
      vertex -2.2 7.5 4.7
      vertex -2.2 -7.5 -4.7
      vertex -2.2 -7.5 4.7
    endloop
  endfacet
  facet normal 0 -2.22045e-16 -1
    outer loop
      vertex -2.2 7.5 -4.7
      vertex 2.2 7.5 -4.7
      vertex -2.2 -7.5 -4.7
    endloop
  endfacet
  facet normal 0 -2.22045e-16 -1
    outer loop
      vertex -2.2 -7.5 -4.7
      vertex 2.2 7.5 -4.7
      vertex 2.2 -3.1 -4.7
    endloop
  endfacet
  facet normal 0 -2.22045e-16 -1
    outer loop
      vertex -2.2 -7.5 -4.7
      vertex 2.2 -3.1 -4.7
      vertex 9.8 -3.1 -4.7
    endloop
  endfacet
  facet normal 0 -2.22045e-16 -1
    outer loop
      vertex 9.8 -3.1 -4.7
      vertex 9.8 27.5 -4.7
      vertex 14.2 27.5 -4.7
    endloop
  endfacet
  facet normal 0 -2.22045e-16 -1
    outer loop
      vertex 9.8 -3.1 -4.7
      vertex 14.2 27.5 -4.7
      vertex 14.2 -3.1 -4.7
    endloop
  endfacet
  facet normal 0 -2.22045e-16 -1
    outer loop
      vertex 9.8 -3.1 -4.7
      vertex 14.2 -3.1 -4.7
      vertex -2.2 -7.5 -4.7
    endloop
  endfacet
  facet normal 0 -2.22045e-16 -1
    outer loop
      vertex 14.2 -3.1 -4.7
      vertex 52 -3.1 -4.7
      vertex -2.2 -7.5 -4.7
    endloop
  endfacet
  facet normal 0 -2.22045e-16 -1
    outer loop
      vertex 14.2 -7.5 -4.7
      vertex 52 -3.1 -4.7
      vertex 52 -7.5 -4.7
    endloop
  endfacet
  facet normal 0 -2.22045e-16 -1
    outer loop
      vertex 9.8 -7.5 -4.7
      vertex 52 -3.1 -4.7
      vertex 14.2 -7.5 -4.7
    endloop
  endfacet
  facet normal 0 -2.22045e-16 -1
    outer loop
      vertex 2.2 -7.5 -4.7
      vertex 52 -3.1 -4.7
      vertex 9.8 -7.5 -4.7
    endloop
  endfacet
  facet normal 0 -2.22045e-16 -1
    outer loop
      vertex -2.2 -7.5 -4.7
      vertex 52 -3.1 -4.7
      vertex 2.2 -7.5 -4.7
    endloop
  endfacet
  facet normal 0 1 -2.22045e-16
    outer loop
      vertex -2.2 7.5 -4.7
      vertex -2.2 7.5 4.7
      vertex 2.2 7.5 -4.7
    endloop
  endfacet
  facet normal 0 1 -2.22045e-16
    outer loop
      vertex 2.2 7.5 -4.7
      vertex -2.2 7.5 4.7
      vertex 2.2 7.5 4.7
    endloop
  endfacet
  facet normal 0 2.22045e-16 1
    outer loop
      vertex 2.2 7.5 4.7
      vertex -2.2 7.5 4.7
      vertex -2.2 -7.5 4.7
    endloop
  endfacet
  facet normal 0 2.22045e-16 1
    outer loop
      vertex 2.2 -3.1 4.7
      vertex 2.2 7.5 4.7
      vertex -2.2 -7.5 4.7
    endloop
  endfacet
  facet normal 0 2.22045e-16 1
    outer loop
      vertex 2.2 -7.5 4.7
      vertex 2.2 -3.1 4.7
      vertex -2.2 -7.5 4.7
    endloop
  endfacet
  facet normal 0 2.22045e-16 1
    outer loop
      vertex 9.8 -3.1 4.7
      vertex 2.2 -3.1 4.7
      vertex 9.8 -7.5 4.7
    endloop
  endfacet
  facet normal 0 2.22045e-16 1
    outer loop
      vertex 14.2 -7.5 4.7
      vertex 52 -7.5 4.7
      vertex 14.2 -3.1 4.7
    endloop
  endfacet
  facet normal 0 2.22045e-16 1
    outer loop
      vertex 9.8 -7.5 4.7
      vertex 14.2 -7.5 4.7
      vertex 9.8 -3.1 4.7
    endloop
  endfacet
  facet normal 0 2.22045e-16 1
    outer loop
      vertex 9.8 -7.5 4.7
      vertex 2.2 -3.1 4.7
      vertex 2.2 -7.5 4.7
    endloop
  endfacet
  facet normal 0 2.22045e-16 1
    outer loop
      vertex 52 -3.1 4.7
      vertex 14.2 -3.1 4.7
      vertex 52 -7.5 4.7
    endloop
  endfacet
  facet normal 0 2.22045e-16 1
    outer loop
      vertex 9.8 27.5 4.7
      vertex 14.2 -3.1 4.7
      vertex 14.2 27.5 4.7
    endloop
  endfacet
  facet normal 0 2.22045e-16 1
    outer loop
      vertex 9.8 27.5 4.7
      vertex 14.2 -7.5 4.7
      vertex 14.2 -3.1 4.7
    endloop
  endfacet
  facet normal 0 2.22045e-16 1
    outer loop
      vertex 9.8 27.5 4.7
      vertex 9.8 -3.1 4.7
      vertex 14.2 -7.5 4.7
    endloop
  endfacet
  facet normal 0 -1 2.22045e-16
    outer loop
      vertex -2.2 -7.5 4.7
      vertex -2.2 -7.5 -4.7
      vertex 2.2 -7.5 -4.7
    endloop
  endfacet
  facet normal 0 -1 2.22045e-16
    outer loop
      vertex 2.2 -7.5 4.7
      vertex -2.2 -7.5 4.7
      vertex 2.2 -7.5 -4.7
    endloop
  endfacet
  facet normal 0 -1 2.22045e-16
    outer loop
      vertex 2.2 -7.5 4.7
      vertex 2.2 -7.5 -4.7
      vertex 9.8 -7.5 -4.7
    endloop
  endfacet
  facet normal 0 -1 2.22045e-16
    outer loop
      vertex 9.8 -7.5 4.7
      vertex 2.2 -7.5 4.7
      vertex 9.8 -7.5 -4.7
    endloop
  endfacet
  facet normal 0 -1 2.22045e-16
    outer loop
      vertex 9.8 -7.5 4.7
      vertex 9.8 -7.5 -4.7
      vertex 14.2 -7.5 -4.7
    endloop
  endfacet
  facet normal 0 -1 2.22045e-16
    outer loop
      vertex 14.2 -7.5 4.7
      vertex 9.8 -7.5 4.7
      vertex 14.2 -7.5 -4.7
    endloop
  endfacet
  facet normal 0 -1 2.22045e-16
    outer loop
      vertex 14.2 -7.5 4.7
      vertex 14.2 -7.5 -4.7
      vertex 52 -7.5 -4.7
    endloop
  endfacet
  facet normal 0 -1 2.22045e-16
    outer loop
      vertex 52 -7.5 4.7
      vertex 14.2 -7.5 4.7
      vertex 52 -7.5 -4.7
    endloop
  endfacet
  facet normal 1 0 0
    outer loop
      vertex 52 -7.5 -4.7
      vertex 52 -3.1 -4.7
      vertex 52 -3.1 4.7
    endloop
  endfacet
  facet normal 1 0 0
    outer loop
      vertex 52 -7.5 4.7
      vertex 52 -7.5 -4.7
      vertex 52 -3.1 4.7
    endloop
  endfacet
  facet normal 0 1 -2.22045e-16
    outer loop
      vertex 14.2 -3.1 -4.7
      vertex 14.2 -3.1 4.7
      vertex 52 -3.1 -4.7
    endloop
  endfacet
  facet normal 0 1 -2.22045e-16
    outer loop
      vertex 52 -3.1 -4.7
      vertex 14.2 -3.1 4.7
      vertex 52 -3.1 4.7
    endloop
  endfacet
  facet normal 1 0 0
    outer loop
      vertex 14.2 -3.1 -4.7
      vertex 14.2 27.5 -4.7
      vertex 14.2 27.5 4.7
    endloop
  endfacet
  facet normal 1 0 0
    outer loop
      vertex 14.2 -3.1 4.7
      vertex 14.2 -3.1 -4.7
      vertex 14.2 27.5 4.7
    endloop
  endfacet
  facet normal 0 1 -2.22045e-16
    outer loop
      vertex 9.8 27.5 -4.7
      vertex 9.8 27.5 4.7
      vertex 14.2 27.5 -4.7
    endloop
  endfacet
  facet normal 0 1 -2.22045e-16
    outer loop
      vertex 14.2 27.5 -4.7
      vertex 9.8 27.5 4.7
      vertex 14.2 27.5 4.7
    endloop
  endfacet
  facet normal -1 0 0
    outer loop
      vertex 9.8 27.5 -4.7
      vertex 9.8 -3.1 -4.7
      vertex 9.8 27.5 4.7
    endloop
  endfacet
  facet normal -1 0 0
    outer loop
      vertex 9.8 27.5 4.7
      vertex 9.8 -3.1 -4.7
      vertex 9.8 -3.1 4.7
    endloop
  endfacet
  facet normal 0 1 -2.22045e-16
    outer loop
      vertex 2.2 -3.1 -4.7
      vertex 2.2 -3.1 4.7
      vertex 9.8 -3.1 -4.7
    endloop
  endfacet
  facet normal 0 1 -2.22045e-16
    outer loop
      vertex 9.8 -3.1 -4.7
      vertex 2.2 -3.1 4.7
      vertex 9.8 -3.1 4.7
    endloop
  endfacet
  facet normal 1 0 0
    outer loop
      vertex 2.2 -3.1 -4.7
      vertex 2.2 7.5 -4.7
      vertex 2.2 7.5 4.7
    endloop
  endfacet
  facet normal 1 0 0
    outer loop
      vertex 2.2 -3.1 4.7
      vertex 2.2 -3.1 -4.7
      vertex 2.2 7.5 4.7
    endloop
  endfacet
endsolid OpenSCAD_Model
